<svg width="64" height="64" viewBox="0 0 64 64" fill="none" xmlns="http://www.w3.org/2000/svg">
<circle cx="32" cy="32" r="32" fill="#7C78E9" fill-opacity="0.1"/>
<mask id="mask0_33_327" style="mask-type:alpha" maskUnits="userSpaceOnUse" x="13" y="13" width="38" height="38">
<rect x="13" y="13" width="38" height="38" fill="#D9D9D9"/>
</mask>
<g mask="url(#mask0_33_327)">
<path d="M17.75 46.25V38.8476H23.925L30.6937 32.1187V26.4976C29.7437 26.155 28.9784 25.6008 28.3976 24.8351C27.8175 24.07 27.5274 23.1992 27.5274 22.2226C27.5274 20.9825 27.9628 19.9271 28.8336 19.0562C29.7045 18.1854 30.7599 17.75 32 17.75C33.2401 17.75 34.2955 18.1854 35.1663 19.0562C36.0372 19.9271 36.4726 20.9825 36.4726 22.2226C36.4726 23.1992 36.1825 24.07 35.6024 24.8351C35.0216 25.6008 34.2562 26.155 33.3062 26.4976V32.1187L40.075 38.8476H46.25V46.25H38.8476V41.5788L32 34.7312L25.1524 41.5788V46.25H17.75Z" fill="#473BF0"/>
</g>
</svg>
