<svg width="64" height="64" viewBox="0 0 64 64" fill="none" xmlns="http://www.w3.org/2000/svg">
<circle cx="32" cy="32" r="32" fill="#7C78E9" fill-opacity="0.1"/>
<mask id="mask0_33_342" style="mask-type:alpha" maskUnits="userSpaceOnUse" x="13" y="13" width="38" height="38">
<rect x="13" y="13" width="38" height="38" fill="#D9D9D9"/>
</mask>
<g mask="url(#mask0_33_342)">
<path d="M13 41.5V39.2836C13 38.2013 13.5675 37.3304 14.7024 36.6711C15.8367 36.0112 17.3013 35.6812 19.0961 35.6812C19.4128 35.6812 19.7228 35.6879 20.0262 35.7012C20.3296 35.7145 20.6263 35.7474 20.9164 35.8C20.6529 36.275 20.455 36.7696 20.3226 37.2839C20.1909 37.7988 20.125 38.3466 20.125 38.9274V41.5H13ZM22.5 41.5V38.9274C22.5 37.2117 23.3775 35.8263 25.1324 34.7711C26.8874 33.7154 29.1766 33.1875 32 33.1875C34.85 33.1875 37.1458 33.7154 38.8875 34.7711C40.6292 35.8263 41.5 37.2117 41.5 38.9274V41.5H22.5ZM43.875 41.5V38.9274C43.875 38.3466 43.8155 37.7988 43.6964 37.2839C43.578 36.7696 43.3867 36.275 43.1226 35.8C43.4133 35.7474 43.7103 35.7145 44.0137 35.7012C44.3171 35.6879 44.6271 35.6812 44.9437 35.6812C46.7646 35.6812 48.2292 36.0112 49.3375 36.6711C50.4458 37.3304 51 38.2013 51 39.2836V41.5H43.875ZM19.0562 34.375C18.2646 34.375 17.585 34.0913 17.0176 33.5238C16.4501 32.9563 16.1663 32.2768 16.1663 31.4851C16.1663 30.6675 16.4501 29.9749 17.0176 29.4074C17.585 28.84 18.2646 28.5562 19.0562 28.5562C19.8745 28.5562 20.5671 28.84 21.1339 29.4074C21.7014 29.9749 21.9851 30.6675 21.9851 31.4851C21.9851 32.2768 21.7014 32.9563 21.1339 33.5238C20.5671 34.0913 19.8745 34.375 19.0562 34.375ZM44.9038 34.375C44.1122 34.375 43.4326 34.0913 42.8651 33.5238C42.2983 32.9563 42.0149 32.2768 42.0149 31.4851C42.0149 30.6675 42.2983 29.9749 42.8651 29.4074C43.4326 28.84 44.1255 28.5562 44.9437 28.5562C45.7354 28.5562 46.415 28.84 46.9824 29.4074C47.5499 29.9749 47.8336 30.6675 47.8336 31.4851C47.8336 32.2768 47.5499 32.9563 46.9824 33.5238C46.415 34.0913 45.7221 34.375 44.9038 34.375ZM32 32C30.6808 32 29.5591 31.5383 28.6351 30.6149C27.7117 29.6909 27.25 28.5692 27.25 27.25C27.25 25.9042 27.7117 24.7762 28.6351 23.8661C29.5591 22.9554 30.6808 22.5 32 22.5C33.3458 22.5 34.4738 22.9554 35.3839 23.8661C36.2946 24.7762 36.75 25.9042 36.75 27.25C36.75 28.5692 36.2946 29.6909 35.3839 30.6149C34.4738 31.5383 33.3458 32 32 32Z" fill="#473BF0"/>
</g>
</svg>
