<svg width="64" height="64" viewBox="0 0 64 64" fill="none" xmlns="http://www.w3.org/2000/svg">
<circle cx="32" cy="32" r="32" fill="#7C78E9" fill-opacity="0.1"/>
<mask id="mask0_33_336" style="mask-type:alpha" maskUnits="userSpaceOnUse" x="13" y="13" width="38" height="38">
<rect x="13" y="13" width="38" height="38" fill="#D9D9D9"/>
</mask>
<g mask="url(#mask0_33_336)">
<path d="M20.9162 28.2L19.6099 25.3899L16.7998 24.0837L19.6099 22.7774L20.9162 19.9664L22.2224 22.7774L25.0335 24.0837L22.2224 25.3899L20.9162 28.2ZM41.4998 23.45L40.7085 21.7087L38.9662 20.9164L40.7085 20.125L41.4998 18.3836L42.2912 20.125L44.0335 20.9164L42.2912 21.7087L41.4998 23.45ZM44.6662 29.7837L43.8748 28.0414L42.1335 27.25L43.8748 26.4587L44.6662 24.7164L45.4585 26.4587L47.1998 27.25L45.4585 28.0414L44.6662 29.7837ZM31.9998 36.1563C30.8123 36.1563 29.8094 35.7275 28.9912 34.87C28.1735 34.0124 27.7647 32.9766 27.7647 31.7625V21.9851C27.7647 20.7976 28.1735 19.795 28.9912 18.9774C29.8094 18.1591 30.8123 17.75 31.9998 17.75C33.1873 17.75 34.1902 18.1591 35.0085 18.9774C35.8261 19.795 36.2349 20.7976 36.2349 21.9851V31.7625C36.2349 32.9766 35.8261 34.0124 35.0085 34.87C34.1902 35.7275 33.1873 36.1563 31.9998 36.1563ZM30.6936 47.8337V42.6087C27.8961 42.292 25.5674 41.1045 23.7073 39.0462C21.8465 36.9878 20.9162 34.5599 20.9162 31.7625H23.5686C23.5686 34.0849 24.3932 36.0508 26.0424 37.6601C27.6916 39.27 29.6774 40.075 31.9998 40.075C34.3222 40.075 36.3081 39.27 37.9573 37.6601C39.6065 36.0508 40.4311 34.0849 40.4311 31.7625H43.0835C43.0835 34.5599 42.1531 36.9878 40.2924 39.0462C38.4323 41.1045 36.1035 42.292 33.3061 42.6087V47.8337H30.6936Z" fill="#473BF0"/>
</g>
</svg>
