<svg width="200" height="44" viewBox="0 0 200 44" fill="none" xmlns="http://www.w3.org/2000/svg">
<path d="M137.57 20.9901V25.2641H143.31V27.9751H137.57V32.4933H144.042V35.2775H134.151V18.2059H144.042V20.9901H137.57Z" fill="#FAFAFA"/>
<path d="M152.791 32.127L156.21 21.7472H159.849L154.843 35.2775H150.691L145.709 21.7472H149.372L152.791 32.127Z" fill="#FAFAFA"/>
<path d="M174.348 28.2193C174.348 28.7078 174.315 29.1474 174.25 29.5382H164.359C164.44 30.5151 164.782 31.2803 165.385 31.8339C165.987 32.3875 166.728 32.6643 167.607 32.6643C168.877 32.6643 169.781 32.1188 170.318 31.028H174.006C173.615 32.3305 172.866 33.4051 171.759 34.2518C170.652 35.0822 169.292 35.4973 167.68 35.4973C166.378 35.4973 165.205 35.2124 164.163 34.6425C163.138 34.0564 162.332 33.2342 161.745 32.1758C161.176 31.1175 160.891 29.8964 160.891 28.5124C160.891 27.1121 161.176 25.8829 161.745 24.8245C162.315 23.7662 163.113 22.9521 164.139 22.3822C165.165 21.8124 166.345 21.5274 167.68 21.5274C168.967 21.5274 170.114 21.8042 171.124 22.3578C172.15 22.9114 172.939 23.7011 173.493 24.7268C174.063 25.7363 174.348 26.9005 174.348 28.2193ZM170.806 27.2424C170.79 26.3632 170.473 25.6631 169.854 25.142C169.235 24.6047 168.478 24.3361 167.583 24.3361C166.736 24.3361 166.02 24.5966 165.433 25.1176C164.863 25.6224 164.513 26.3306 164.383 27.2424H170.806Z" fill="#FAFAFA"/>
<path d="M184.341 21.5519C185.953 21.5519 187.256 22.0647 188.249 23.0905C189.242 24.1 189.739 25.5165 189.739 27.3401V35.2775H186.32V27.8041C186.32 26.7295 186.051 25.9073 185.514 25.3374C184.976 24.7513 184.244 24.4582 183.316 24.4582C182.371 24.4582 181.622 24.7513 181.069 25.3374C180.531 25.9073 180.263 26.7295 180.263 27.8041V35.2775H176.843V21.7472H180.263V23.4324C180.719 22.8463 181.297 22.3904 181.997 22.0647C182.713 21.7228 183.495 21.5519 184.341 21.5519Z" fill="#FAFAFA"/>
<path d="M196.971 24.5559V31.1012C196.971 31.5571 197.077 31.8909 197.289 32.1026C197.517 32.2979 197.891 32.3956 198.412 32.3956H200V35.2775H197.85C194.968 35.2775 193.528 33.8773 193.528 31.0768V24.5559H191.916V21.7472H193.528V18.4013H196.971V21.7472H200V24.5559H196.971Z" fill="#FAFAFA"/>
<path fill-rule="evenodd" clip-rule="evenodd" d="M57.7644 32.0293H50.9749L49.8514 35.2775H46.2612L52.3914 18.2059H56.3723L62.5025 35.2775H58.8879L57.7644 32.0293ZM54.3696 22.1624L56.8363 29.2939H51.9029L54.3696 22.1624Z" fill="#473BF0"/>
<path d="M69.9715 35.4973C68.8643 35.4973 67.8711 35.302 66.9919 34.9112C66.1127 34.5041 65.4125 33.9587 64.8915 33.2749C64.3868 32.591 64.11 31.8339 64.0611 31.0035H67.5048C67.5699 31.5246 67.8223 31.956 68.2619 32.2979C68.7178 32.6399 69.2795 32.8108 69.9471 32.8108C70.5983 32.8108 71.1031 32.6806 71.4613 32.4201C71.8358 32.1595 72.023 31.8258 72.023 31.4187C72.023 30.9791 71.7951 30.6535 71.3392 30.4418C70.8996 30.2139 70.1913 29.9696 69.2144 29.7091C68.2049 29.4649 67.3745 29.2125 66.7232 28.952C66.0882 28.6915 65.5347 28.2926 65.0625 27.7553C64.6066 27.218 64.3786 26.4934 64.3786 25.5816C64.3786 24.8327 64.5903 24.1488 65.0136 23.5301C65.4532 22.9114 66.072 22.4229 66.8698 22.0647C67.6839 21.7065 68.6364 21.5274 69.7273 21.5274C71.3392 21.5274 72.6254 21.9345 73.5861 22.7486C74.5467 23.5464 75.0759 24.6292 75.1736 25.9968H71.9009C71.852 25.4595 71.6241 25.0362 71.217 24.7268C70.8263 24.4012 70.2971 24.2384 69.6296 24.2384C69.0108 24.2384 68.5305 24.3524 68.1886 24.5803C67.863 24.8083 67.7002 25.1258 67.7002 25.5328C67.7002 25.9887 67.9281 26.3388 68.384 26.583C68.8399 26.8109 69.5482 27.047 70.5088 27.2912C71.4857 27.5355 72.2917 27.7878 72.9267 28.0484C73.5616 28.3089 74.1071 28.7159 74.563 29.2695C75.0352 29.8068 75.2794 30.5232 75.2957 31.4187C75.2957 32.2003 75.0759 32.9004 74.6363 33.5191C74.2129 34.1378 73.5942 34.6263 72.7801 34.9845C71.9823 35.3264 71.0461 35.4973 69.9715 35.4973Z" fill="#473BF0"/>
<path fill-rule="evenodd" clip-rule="evenodd" d="M77.2232 28.4635C77.2232 27.0959 77.4918 25.8829 78.0291 24.8245C78.5827 23.7662 79.3235 22.9521 80.2516 22.3822C81.196 21.8124 82.2462 21.5274 83.4022 21.5274C84.4117 21.5274 85.2909 21.731 86.0398 22.138C86.8051 22.5451 87.4157 23.0579 87.8716 23.6767V21.7472H91.3152V35.2775H87.8716V33.2993C87.4319 33.9343 86.8214 34.4634 86.0398 34.8868C85.2746 35.2938 84.3872 35.4973 83.3777 35.4973C82.238 35.4973 81.196 35.2043 80.2516 34.6181C79.3235 34.032 78.5827 33.2097 78.0291 32.1514C77.4918 31.0768 77.2232 29.8475 77.2232 28.4635ZM87.3831 26.3876C87.7087 26.9738 87.8716 27.682 87.8716 28.5124C87.8716 29.3428 87.7087 30.0592 87.3831 30.6616C87.0575 31.2478 86.6179 31.7037 86.0643 32.0293C85.5107 32.3386 84.9164 32.4933 84.2814 32.4933C83.6627 32.4933 83.0765 32.3305 82.5229 32.0049C81.9856 31.6792 81.546 31.2152 81.2041 30.6128C80.8785 29.9941 80.7157 29.2776 80.7157 28.4635C80.7157 27.6495 80.8785 26.9493 81.2041 26.3632C81.546 25.7607 81.9856 25.3049 82.5229 24.9955C83.0602 24.6861 83.6464 24.5315 84.2814 24.5315C84.9164 24.5315 85.5107 24.6943 86.0643 25.0199C86.6179 25.3293 87.0575 25.7852 87.3831 26.3876Z" fill="#473BF0"/>
<path d="M98.0739 17.2046V35.2775H94.6546V17.2046H98.0739Z" fill="#473BF0"/>
<path d="M109.072 21.5519C110.098 21.5519 111.01 21.7798 111.807 22.2357C112.605 22.6753 113.224 23.3347 113.663 24.214C114.119 25.0769 114.347 26.1189 114.347 27.3401V35.2775H110.928V27.8041C110.928 26.7295 110.659 25.9073 110.122 25.3374C109.585 24.7513 108.852 24.4582 107.924 24.4582C106.98 24.4582 106.231 24.7513 105.677 25.3374C105.14 25.9073 104.871 26.7295 104.871 27.8041V35.2775H101.452V17.2046H104.871V23.4324C105.311 22.8463 105.897 22.3904 106.63 22.0647C107.362 21.7228 108.176 21.5519 109.072 21.5519Z" fill="#473BF0"/>
<path fill-rule="evenodd" clip-rule="evenodd" d="M116.72 28.4635C116.72 27.0959 116.988 25.8829 117.526 24.8245C118.079 23.7662 118.82 22.9521 119.748 22.3822C120.692 21.8124 121.743 21.5274 122.899 21.5274C123.908 21.5274 124.787 21.731 125.536 22.138C126.302 22.5451 126.912 23.0579 127.368 23.6767V21.7472H130.812V35.2775H127.368V33.2993C126.928 33.9343 126.318 34.4634 125.536 34.8868C124.771 35.2938 123.884 35.4973 122.874 35.4973C121.734 35.4973 120.692 35.2043 119.748 34.6181C118.82 34.032 118.079 33.2097 117.526 32.1514C116.988 31.0768 116.72 29.8475 116.72 28.4635ZM126.88 26.3876C127.205 26.9738 127.368 27.682 127.368 28.5124C127.368 29.3428 127.205 30.0592 126.88 30.6616C126.554 31.2478 126.114 31.7037 125.561 32.0293C125.007 32.3386 124.413 32.4933 123.778 32.4933C123.159 32.4933 122.573 32.3305 122.019 32.0049C121.482 31.6792 121.042 31.2152 120.701 30.6128C120.375 29.9941 120.212 29.2776 120.212 28.4635C120.212 27.6495 120.375 26.9493 120.701 26.3632C121.042 25.7607 121.482 25.3049 122.019 24.9955C122.557 24.6861 123.143 24.5315 123.778 24.5315C124.413 24.5315 125.007 24.6943 125.561 25.0199C126.114 25.3293 126.554 25.7852 126.88 26.3876Z" fill="#473BF0"/>
<path d="M12.0151 35.1572L9.15136 43.4185H0L15.6258 0H25.7732L41.399 43.4185H32.1854L29.3217 35.1572L26.9561 28.2003L20.6684 10.0627L14.3807 28.2003L12.0151 35.1572Z" fill="#FAFAFA"/>
<path d="M12.6217 35.3406H38.3698L34.8503 28.2725H16.1412L12.6217 35.3406Z" fill="#473BF0"/>
</svg>
