<svg width="81" height="81" viewBox="0 0 81 81" fill="none" xmlns="http://www.w3.org/2000/svg">
<circle cx="40.3335" cy="40.5" r="40" fill="#473BF0"/>
<rect width="47.5" height="47.5" transform="translate(16.5835 16.75)" fill="#473BF0"/>
<path fill-rule="evenodd" clip-rule="evenodd" d="M22.521 21.2031C22.1273 21.2031 21.7498 21.3595 21.4714 21.6379C21.193 21.9163 21.0366 22.2938 21.0366 22.6875C21.0366 23.0812 21.193 23.4587 21.4714 23.7371C21.7498 24.0155 22.1273 24.1719 22.521 24.1719V56.8281H21.0366C20.6429 56.8281 20.2654 56.9845 19.987 57.2629C19.7086 57.5413 19.5522 57.9188 19.5522 58.3125C19.5522 58.7062 19.7086 59.0837 19.987 59.3621C20.2654 59.6405 20.6429 59.7969 21.0366 59.7969H46.271V24.1719C46.6647 24.1719 47.0422 24.0155 47.3206 23.7371C47.599 23.4587 47.7554 23.0812 47.7554 22.6875C47.7554 22.2938 47.599 21.9163 47.3206 21.6379C47.0422 21.3595 46.6647 21.2031 46.271 21.2031H22.521ZM29.9429 55.3437V50.8906C29.9429 50.4969 30.0993 50.1194 30.3776 49.841C30.656 49.5626 31.0336 49.4062 31.4272 49.4062H37.3647C37.7584 49.4062 38.136 49.5626 38.4144 49.841C38.6927 50.1194 38.8491 50.4969 38.8491 50.8906V55.3437C38.8491 55.7374 38.6927 56.115 38.4144 56.3934C38.136 56.6717 37.7584 56.8281 37.3647 56.8281H31.4272C31.0336 56.8281 30.656 56.6717 30.3776 56.3934C30.0993 56.115 29.9429 55.7374 29.9429 55.3437ZM28.4585 30.1094C28.4585 29.7157 28.6149 29.3381 28.8933 29.0598C29.1716 28.7814 29.5492 28.625 29.9429 28.625H31.4272C31.8209 28.625 32.1985 28.7814 32.4769 29.0598C32.7552 29.3381 32.9116 29.7157 32.9116 30.1094C32.9116 30.5031 32.7552 30.8806 32.4769 31.159C32.1985 31.4374 31.8209 31.5937 31.4272 31.5937H29.9429C29.5492 31.5937 29.1716 31.4374 28.8933 31.159C28.6149 30.8806 28.4585 30.5031 28.4585 30.1094ZM29.9429 34.5625C29.5492 34.5625 29.1716 34.7189 28.8933 34.9973C28.6149 35.2756 28.4585 35.6532 28.4585 36.0469C28.4585 36.4406 28.6149 36.8181 28.8933 37.0965C29.1716 37.3749 29.5492 37.5312 29.9429 37.5312H31.4272C31.8209 37.5312 32.1985 37.3749 32.4769 37.0965C32.7552 36.8181 32.9116 36.4406 32.9116 36.0469C32.9116 35.6532 32.7552 35.2756 32.4769 34.9973C32.1985 34.7189 31.8209 34.5625 31.4272 34.5625H29.9429ZM28.4585 41.9844C28.4585 41.5907 28.6149 41.2131 28.8933 40.9348C29.1716 40.6564 29.5492 40.5 29.9429 40.5H31.4272C31.8209 40.5 32.1985 40.6564 32.4769 40.9348C32.7552 41.2131 32.9116 41.5907 32.9116 41.9844C32.9116 42.3781 32.7552 42.7556 32.4769 43.034C32.1985 43.3124 31.8209 43.4687 31.4272 43.4687H29.9429C29.5492 43.4687 29.1716 43.3124 28.8933 43.034C28.6149 42.7556 28.4585 42.3781 28.4585 41.9844ZM37.3647 28.625C36.9711 28.625 36.5935 28.7814 36.3151 29.0598C36.0368 29.3381 35.8804 29.7157 35.8804 30.1094C35.8804 30.5031 36.0368 30.8806 36.3151 31.159C36.5935 31.4374 36.9711 31.5937 37.3647 31.5937H38.8491C39.2428 31.5937 39.6204 31.4374 39.8987 31.159C40.1771 30.8806 40.3335 30.5031 40.3335 30.1094C40.3335 29.7157 40.1771 29.3381 39.8987 29.0598C39.6204 28.7814 39.2428 28.625 38.8491 28.625H37.3647ZM35.8804 36.0469C35.8804 35.6532 36.0368 35.2756 36.3151 34.9973C36.5935 34.7189 36.9711 34.5625 37.3647 34.5625H38.8491C39.2428 34.5625 39.6204 34.7189 39.8987 34.9973C40.1771 35.2756 40.3335 35.6532 40.3335 36.0469C40.3335 36.4406 40.1771 36.8181 39.8987 37.0965C39.6204 37.3749 39.2428 37.5312 38.8491 37.5312H37.3647C36.9711 37.5312 36.5935 37.3749 36.3151 37.0965C36.0368 36.8181 35.8804 36.4406 35.8804 36.0469ZM37.3647 40.5C36.9711 40.5 36.5935 40.6564 36.3151 40.9348C36.0368 41.2131 35.8804 41.5907 35.8804 41.9844C35.8804 42.3781 36.0368 42.7556 36.3151 43.034C36.5935 43.3124 36.9711 43.4687 37.3647 43.4687H38.8491C39.2428 43.4687 39.6204 43.3124 39.8987 43.034C40.1771 42.7556 40.3335 42.3781 40.3335 41.9844C40.3335 41.5907 40.1771 41.2131 39.8987 40.9348C39.6204 40.6564 39.2428 40.5 38.8491 40.5H37.3647ZM49.2397 30.1094V59.7969H59.6304C60.0241 59.7969 60.4016 59.6405 60.68 59.3621C60.9584 59.0837 61.1147 58.7062 61.1147 58.3125C61.1147 57.9188 60.9584 57.5413 60.68 57.2629C60.4016 56.9845 60.0241 56.8281 59.6304 56.8281H58.146V33.0781C58.5397 33.0781 58.9172 32.9217 59.1956 32.6434C59.474 32.365 59.6304 31.9874 59.6304 31.5937C59.6304 31.2001 59.474 30.8225 59.1956 30.5441C58.9172 30.2658 58.5397 30.1094 58.146 30.1094H49.2397ZM52.2085 39.0156C52.2085 38.6219 52.3649 38.2444 52.6433 37.966C52.9216 37.6876 53.2992 37.5312 53.6929 37.5312H53.7087C54.1024 37.5312 54.4799 37.6876 54.7583 37.966C55.0367 38.2444 55.1931 38.6219 55.1931 39.0156V39.0315C55.1931 39.4251 55.0367 39.8027 54.7583 40.0811C54.4799 40.3594 54.1024 40.5158 53.7087 40.5158H53.6929C53.2992 40.5158 52.9216 40.3594 52.6433 40.0811C52.3649 39.8027 52.2085 39.4251 52.2085 39.0315V39.0156ZM53.6929 43.4687C53.2992 43.4687 52.9216 43.6251 52.6433 43.9035C52.3649 44.1819 52.2085 44.5594 52.2085 44.9531V44.969C52.2085 45.7883 52.8735 46.4533 53.6929 46.4533H53.7087C54.1024 46.4533 54.4799 46.2969 54.7583 46.0186C55.0367 45.7402 55.1931 45.3626 55.1931 44.969V44.9531C55.1931 44.5594 55.0367 44.1819 54.7583 43.9035C54.4799 43.6251 54.1024 43.4687 53.7087 43.4687H53.6929ZM52.2085 50.8906C52.2085 50.4969 52.3649 50.1194 52.6433 49.841C52.9216 49.5626 53.2992 49.4062 53.6929 49.4062H53.7087C54.1024 49.4062 54.4799 49.5626 54.7583 49.841C55.0367 50.1194 55.1931 50.4969 55.1931 50.8906V50.9065C55.1931 51.3001 55.0367 51.6777 54.7583 51.9561C54.4799 52.2344 54.1024 52.3908 53.7087 52.3908H53.6929C53.2992 52.3908 52.9216 52.2344 52.6433 51.9561C52.3649 51.6777 52.2085 51.3001 52.2085 50.9065V50.8906Z" fill="#FAFAFA"/>
</svg>
