<svg width="80" height="81" viewBox="0 0 80 81" fill="none" xmlns="http://www.w3.org/2000/svg">
<circle cx="40" cy="40.5" r="40" fill="#473BF0"/>
<rect width="47.5" height="47.5" transform="translate(16.25 16.75)" fill="#473BF0"/>
<path fill-rule="evenodd" clip-rule="evenodd" d="M32.5781 30.1094C32.5781 28.141 33.3601 26.2532 34.7519 24.8613C36.1438 23.4694 38.0316 22.6875 40 22.6875C41.9684 22.6875 43.8562 23.4694 45.2481 24.8613C46.6399 26.2532 47.4219 28.141 47.4219 30.1094C47.4219 32.0778 46.6399 33.9656 45.2481 35.3574C43.8562 36.7493 41.9684 37.5312 40 37.5312C38.0316 37.5312 36.1438 36.7493 34.7519 35.3574C33.3601 33.9656 32.5781 32.0778 32.5781 30.1094ZM47.4219 36.0469C47.4219 34.4722 48.0474 32.9619 49.1609 31.8484C50.2744 30.7349 51.7847 30.1094 53.3594 30.1094C54.9341 30.1094 56.4443 30.7349 57.5578 31.8484C58.6713 32.9619 59.2969 34.4722 59.2969 36.0469C59.2969 37.6216 58.6713 39.1318 57.5578 40.2453C56.4443 41.3588 54.9341 41.9844 53.3594 41.9844C51.7847 41.9844 50.2744 41.3588 49.1609 40.2453C48.0474 39.1318 47.4219 37.6216 47.4219 36.0469ZM20.7031 36.0469C20.7031 34.4722 21.3287 32.9619 22.4422 31.8484C23.5557 30.7349 25.0659 30.1094 26.6406 30.1094C28.2153 30.1094 29.7256 30.7349 30.8391 31.8484C31.9526 32.9619 32.5781 34.4722 32.5781 36.0469C32.5781 37.6216 31.9526 39.1318 30.8391 40.2453C29.7256 41.3588 28.2153 41.9844 26.6406 41.9844C25.0659 41.9844 23.5557 41.3588 22.4422 40.2453C21.3287 39.1318 20.7031 37.6216 20.7031 36.0469ZM28.7385 46.6691C29.9457 44.777 31.6105 43.2199 33.5788 42.1416C35.5472 41.0633 37.7556 40.4987 40 40.5C41.8799 40.4983 43.7389 40.8936 45.4554 41.6601C47.1719 42.4266 48.7071 43.547 49.9606 44.9479C51.2141 46.3488 52.1576 47.9987 52.7293 49.7895C53.301 51.5803 53.4881 53.4717 53.2782 55.3398C53.2526 55.5719 53.1725 55.7946 53.0446 55.99C52.9167 56.1853 52.7445 56.3477 52.542 56.464C48.7253 58.654 44.4004 59.8033 40 59.7969C35.438 59.7969 31.1531 58.5856 27.458 56.464C27.2555 56.3477 27.0833 56.1853 26.9554 55.99C26.8275 55.7946 26.7474 55.5719 26.7218 55.3398C26.3894 52.305 27.1007 49.2475 28.7385 46.671V46.6691Z" fill="#FAFAFA"/>
<path d="M26.3083 44.9609C24.3563 47.974 23.4469 51.5443 23.7195 55.124C22.5311 54.9438 21.3622 54.6522 20.2283 54.2531L20.0007 54.174C19.7976 54.1019 19.6198 53.9725 19.4888 53.8014C19.3577 53.6303 19.2791 53.4249 19.2625 53.2101L19.2427 52.9706C19.1627 51.977 19.2837 50.9775 19.5985 50.0317C19.9133 49.0858 20.4154 48.2131 21.0748 47.4656C21.7343 46.718 22.5375 46.111 23.4367 45.6807C24.3358 45.2504 25.3125 45.0056 26.3083 44.9609ZM56.2808 55.124C56.5534 51.5443 55.644 47.974 53.692 44.9609C54.6879 45.0056 55.6645 45.2504 56.5636 45.6807C57.4628 46.111 58.2661 46.718 58.9255 47.4656C59.5849 48.2131 60.087 49.0858 60.4018 50.0317C60.7166 50.9775 60.8376 51.977 60.7577 52.9706L60.7379 53.2101C60.7208 53.4246 60.642 53.6296 60.511 53.8002C60.38 53.9709 60.2024 54.1 59.9996 54.172L59.772 54.2511C58.6498 54.647 57.4841 54.9419 56.2808 55.124Z" fill="#FAFAFA"/>
</svg>
