<svg width="81" height="81" viewBox="0 0 81 81" fill="none" xmlns="http://www.w3.org/2000/svg">
<circle cx="40.6665" cy="40.5" r="40" fill="#473BF0"/>
<rect width="47.5" height="47.5" transform="translate(16.9165 16.75)" fill="#473BF0"/>
<path d="M33.2446 25.6562C33.2446 23.6878 34.0266 21.8001 35.4184 20.4082C36.8103 19.0163 38.6981 18.2344 40.6665 18.2344C42.6349 18.2344 44.5227 19.0163 45.9146 20.4082C47.3064 21.8001 48.0884 23.6878 48.0884 25.6562V41.9844C48.0884 43.9528 47.3064 45.8406 45.9146 47.2324C44.5227 48.6243 42.6349 49.4062 40.6665 49.4062C38.6981 49.4062 36.8103 48.6243 35.4184 47.2324C34.0266 45.8406 33.2446 43.9528 33.2446 41.9844V25.6562Z" fill="#FAFAFA"/>
<path d="M28.7915 37.5312C29.1852 37.5312 29.5627 37.6876 29.8411 37.966C30.1195 38.2444 30.2759 38.6219 30.2759 39.0156V41.9844C30.2759 44.7401 31.3706 47.383 33.3192 49.3317C35.2678 51.2803 37.9107 52.375 40.6665 52.375C43.4223 52.375 46.0652 51.2803 48.0138 49.3317C49.9624 47.383 51.0571 44.7401 51.0571 41.9844V39.0156C51.0571 38.6219 51.2135 38.2444 51.4919 37.966C51.7703 37.6876 52.1478 37.5312 52.5415 37.5312C52.9352 37.5312 53.3127 37.6876 53.5911 37.966C53.8695 38.2444 54.0259 38.6219 54.0259 39.0156V41.9844C54.0258 45.2706 52.8147 48.4416 50.624 50.8912C48.4333 53.3407 45.4167 54.897 42.1509 55.2626V59.7969H48.0884C48.4821 59.7969 48.8596 59.9533 49.138 60.2316C49.4164 60.51 49.5728 60.8876 49.5728 61.2812C49.5728 61.6749 49.4164 62.0525 49.138 62.3309C48.8596 62.6092 48.4821 62.7656 48.0884 62.7656H33.2446C32.8509 62.7656 32.4734 62.6092 32.195 62.3309C31.9166 62.0525 31.7603 61.6749 31.7603 61.2812C31.7603 60.8876 31.9166 60.51 32.195 60.2316C32.4734 59.9533 32.8509 59.7969 33.2446 59.7969H39.1821V55.2626C35.9163 54.897 32.8997 53.3407 30.709 50.8912C28.5183 48.4416 27.3072 45.2706 27.3071 41.9844V39.0156C27.3071 38.6219 27.4635 38.2444 27.7419 37.966C28.0203 37.6876 28.3978 37.5312 28.7915 37.5312Z" fill="#FAFAFA"/>
</svg>
